<svg xmlns="http://www.w3.org/2000/svg" width="512" height="512" viewBox="0 0 512 512" version="1.1">
	<path d="M 224.752 54.250 C 207.946 83.538, 189.493 115.600, 183.745 125.500 C 153.136 178.221, 124.695 227.679, 124.227 229 C 123.935 229.825, 123.132 231.175, 122.443 232 C 121.754 232.825, 119.774 236.200, 118.043 239.500 C 116.312 242.800, 113.831 247.412, 112.531 249.750 L 110.166 254 165.692 254 L 221.219 254 220.798 261.250 C 220.445 267.334, 219.805 269.465, 216.824 274.500 C 213.286 280.475, 210.431 285.535, 204.694 296 C 197.189 309.688, 177.482 343.739, 175.794 345.935 C 171.655 351.318, 168.581 352.248, 152 353.137 C 143.475 353.594, 133.219 354.425, 129.209 354.984 C 118.360 356.496, 91.999 356.330, 92.005 354.750 C 92.007 354.063, 93.600 350.575, 95.544 347 C 97.488 343.425, 99.751 339.150, 100.573 337.500 C 101.395 335.850, 103.086 332.700, 104.331 330.500 C 105.577 328.300, 108.993 322.011, 111.922 316.525 C 114.852 311.038, 117.908 305.544, 118.713 304.316 C 120.073 302.240, 120.011 302.048, 117.838 301.601 C 116.552 301.336, 108.300 300.861, 99.500 300.546 L 83.500 299.972 78 309.664 C 74.975 314.995, 71.240 321.639, 69.701 324.428 C 68.161 327.218, 65.849 331.075, 64.563 333 C 62.591 335.951, 45.558 364.956, 38.617 377.181 C 37.468 379.205, 36.747 381.056, 37.014 381.295 C 37.281 381.533, 72.224 381.987, 114.664 382.304 L 191.829 382.880 193.468 379.690 C 194.369 377.936, 196.095 374.829, 197.303 372.787 C 204.730 360.232, 206 357.929, 206 357.015 C 206 356.457, 206.395 356, 206.879 356 C 207.362 356, 208.349 354.538, 209.072 352.750 C 209.795 350.962, 210.673 349.275, 211.023 349 C 211.373 348.725, 221.299 331.732, 233.080 311.237 C 244.861 290.742, 254.952 273.192, 255.504 272.237 C 256.056 271.282, 258.531 266.961, 261.004 262.637 C 263.477 258.312, 266.489 253.137, 267.699 251.137 C 268.908 249.136, 270.349 246.515, 270.901 245.311 C 271.453 244.106, 273.726 240.123, 275.952 236.458 C 278.178 232.794, 280 229.392, 280 228.898 C 280 228.404, 280.378 228, 280.839 228 C 281.952 228, 284.034 223.367, 283.266 222.600 C 282.937 222.270, 256.417 222, 224.333 222 C 161.178 222, 163.669 222.233, 168 216.727 C 169.100 215.329, 170 213.843, 170 213.426 C 170 213.009, 171.964 209.480, 174.364 205.584 C 178.495 198.879, 192.177 175.807, 194.576 171.500 C 198.644 164.198, 203.110 156.338, 217.152 131.771 C 225.868 116.520, 233 103.582, 233 103.021 C 233 102.459, 233.344 102, 233.764 102 C 234.184 102, 235.344 100.313, 236.342 98.250 C 238.383 94.028, 240.403 90.348, 243.888 84.500 C 246.688 79.802, 249.197 75.442, 252.089 70.250 C 256.211 62.849, 255.704 62.428, 267.546 83.094 C 273.571 93.607, 280.075 105.019, 282 108.454 C 283.925 111.889, 287.522 118.254, 289.993 122.599 C 297.253 135.366, 296.985 136.375, 278.277 166.809 C 275.806 170.829, 273.945 174.255, 274.142 174.422 C 274.339 174.589, 282.449 174.987, 292.165 175.306 C 305.349 175.739, 309.973 175.583, 310.394 174.693 C 310.704 174.037, 312.077 171.700, 313.444 169.500 C 314.812 167.300, 317.546 162.800, 319.520 159.500 C 321.494 156.200, 325.314 149.900, 328.010 145.500 C 330.706 141.100, 332.931 136.719, 332.956 135.764 C 332.980 134.809, 322.599 115.909, 309.886 93.764 C 297.174 71.619, 280.014 41.688, 271.754 27.250 C 263.494 12.813, 256.415 1, 256.022 1 C 255.630 1, 241.558 24.962, 224.752 54.250 M 352.088 194.750 C 348.154 201.762, 344.484 208.175, 343.931 209 C 343.379 209.825, 342.395 211.738, 341.744 213.250 C 341.094 214.762, 340.265 216, 339.902 216 C 339.539 216, 338.663 217.463, 337.954 219.250 C 337.245 221.037, 336.178 223.121, 335.582 223.880 C 334.488 225.276, 329.662 233.569, 326.201 240 C 320.741 250.148, 317.592 255.654, 316.482 257 C 315.801 257.825, 313.635 261.511, 311.668 265.190 C 306.808 274.282, 305.595 276.414, 304.948 277 C 304.644 277.275, 303.608 279.075, 302.645 281 C 301.681 282.925, 299.834 286.300, 298.540 288.500 C 297.246 290.700, 295.544 293.625, 294.757 295 C 290.877 301.782, 288.553 305.769, 286.888 308.500 C 285.882 310.150, 284.373 312.850, 283.534 314.500 C 282.695 316.150, 281.044 319.075, 279.864 321 C 278.684 322.925, 276.751 326.300, 275.567 328.500 C 273.421 332.489, 259.202 357.293, 255.605 363.323 C 254.562 365.070, 252.354 368.975, 250.698 372 C 249.042 375.025, 247.083 378.388, 246.344 379.473 C 243.384 383.818, 244.029 384.001, 262.250 383.985 C 271.738 383.976, 279.980 383.639, 280.568 383.235 C 281.155 382.831, 291.636 364.950, 303.859 343.500 C 316.081 322.050, 326.517 303.825, 327.048 303 C 327.580 302.175, 328.565 300.375, 329.237 299 C 329.909 297.625, 330.726 296.275, 331.051 296 C 331.377 295.725, 333.634 291.900, 336.068 287.500 C 338.501 283.100, 341.044 278.600, 341.719 277.500 C 342.394 276.400, 343.639 274.150, 344.485 272.500 C 345.332 270.850, 348.494 265.496, 351.512 260.602 C 354.531 255.708, 357 251.390, 357 251.007 C 357 250.623, 357.813 249.574, 358.807 248.675 C 360.510 247.133, 360.783 247.323, 363.557 251.976 C 369.272 261.563, 385.042 288.928, 405.927 325.500 C 417.549 345.850, 427.476 363.175, 427.988 364 C 428.500 364.825, 430.581 368.425, 432.611 372 C 434.642 375.575, 437.166 379.738, 438.220 381.250 L 440.136 384 457.509 384 C 467.064 384, 475.064 383.663, 475.287 383.250 C 475.509 382.837, 458.862 353.250, 438.292 317.500 C 417.722 281.750, 400.129 251.065, 399.196 249.310 C 397.842 246.763, 388.925 231.136, 383.500 221.803 C 382.950 220.857, 377.574 211.514, 371.553 201.041 C 365.531 190.569, 360.298 182, 359.923 182 C 359.548 182, 356.023 187.738, 352.088 194.750 M 359.312 337.834 C 358.744 338.200, 357.529 339.850, 356.612 341.500 C 355.695 343.150, 354.057 345.962, 352.972 347.750 C 349.125 354.091, 347.433 356.953, 341.639 366.929 C 338.415 372.479, 335.377 377.267, 334.889 377.569 C 334.400 377.871, 334 378.991, 334 380.059 C 334 381.931, 334.935 382, 360.500 382 C 382.907 382, 387 381.777, 387 380.559 C 387 379.766, 386.561 378.847, 386.024 378.515 C 385.488 378.183, 383.439 375.119, 381.471 371.706 C 379.503 368.293, 376.785 363.700, 375.429 361.500 C 374.074 359.300, 372.504 356.600, 371.940 355.500 C 369.964 351.647, 364.088 342.102, 361.988 339.334 C 361.084 338.143, 359.880 337.468, 359.312 337.834" stroke="none" fill="black" fill-rule="evenodd"/>
</svg>