<svg xmlns="http://www.w3.org/2000/svg" width="512" height="512" viewBox="0 0 512 512" version="1.1">
	<path d="M 251.599 132.307 C 243.954 146.713, 225.900 180.325, 211.479 207 C 197.058 233.675, 179.578 266.300, 172.635 279.500 L 160.011 303.500 200.633 303.761 L 241.256 304.023 240.562 310.158 C 239.971 315.378, 238.100 319.661, 228.008 338.896 C 210.710 371.864, 207.650 377.172, 204.649 379.413 C 201.200 381.988, 195.175 382.658, 167.109 383.586 L 144.718 384.326 155.395 363.413 L 166.071 342.500 153.496 341.623 C 146.579 341.141, 140.754 340.916, 140.551 341.123 C 140.349 341.331, 132.578 355.450, 123.283 372.500 L 106.383 403.500 154.442 404.250 C 180.874 404.662, 206.263 404.887, 210.863 404.750 L 219.226 404.500 225.235 393.500 C 239.831 366.785, 286 280.909, 286 280.477 C 286 280.215, 266.425 280, 242.500 280 C 218.575 280, 199 279.835, 199 279.632 C 199 279.430, 203.803 270.543, 209.674 259.882 C 215.545 249.222, 230.364 221.610, 242.606 198.523 C 254.847 175.435, 265.247 156.418, 265.715 156.262 C 266.184 156.105, 272.740 167.567, 280.284 181.732 C 291.368 202.545, 293.998 208.255, 293.991 211.493 C 293.985 214.556, 292.328 218.535, 286.959 228.384 C 283.095 235.470, 280.118 241.452, 280.344 241.677 C 280.569 241.902, 286.135 242.357, 292.713 242.688 L 304.674 243.289 313.337 227.819 C 318.102 219.311, 322 212.059, 322 211.704 C 322 211.018, 267.078 107.983, 266.085 106.807 C 265.763 106.426, 259.245 117.901, 251.599 132.307 M 312.239 303.204 C 296.250 333.067, 277.322 368.413, 270.176 381.750 L 257.184 406 270.342 405.990 L 283.500 405.980 288.144 397.240 C 308.248 359.404, 331.126 316.832, 335.737 308.681 C 340.223 300.750, 341.527 299.116, 342.518 300.181 C 343.194 300.906, 348.076 309.454, 353.368 319.176 L 362.989 336.853 358.672 344.176 C 356.297 348.204, 352.213 355.438, 349.596 360.250 L 344.838 369 375.436 369 L 406.034 369 403.624 364.250 C 398.041 353.248, 342.812 250.432, 342.094 249.704 C 341.662 249.267, 328.227 273.342, 312.239 303.204" stroke="none" fill="black" fill-rule="evenodd"/>
</svg>