<svg width="96" height="93" viewBox="0 0 96 93" fill="none" xmlns="http://www.w3.org/2000/svg">
<path d="M73.875 89.0625C73.875 91.1338 72.1963 92.8125 70.125 92.8125H61.875C55.6714 92.8125 50.625 87.7661 50.625 81.5625V73.3125C50.625 71.2412 52.3037 69.5625 54.375 69.5625C56.4463 69.5625 58.125 71.2412 58.125 73.3125V80.9978C60.928 78.2358 62.5312 74.4719 62.5312 70.4062C62.5312 62.187 55.8442 55.5 47.625 55.5C39.4058 55.5 32.7188 62.187 32.7188 70.4062C32.7188 76.1228 35.9055 81.2483 41.0354 83.7817C42.8921 84.6987 43.6545 86.9473 42.7375 88.8047C42.0835 90.1274 40.7542 90.895 39.3721 90.895C38.8147 90.895 38.2485 90.7698 37.7146 90.5061C34.0217 88.6824 30.9023 85.8779 28.6934 82.3953C26.4199 78.8123 25.2188 74.6667 25.2188 70.4062C25.2188 58.051 35.2698 48 47.625 48C59.9802 48 70.0312 58.051 70.0312 70.4062C70.0312 74.3518 68.9905 78.2329 67.021 81.6299C66.2571 82.9475 65.3584 84.1802 64.3491 85.3125H70.125C72.1963 85.3125 73.875 86.9912 73.875 89.0625ZM86.625 28.0583V25.5601C86.625 11.4661 75.1589 0 61.0649 0C54.9272 0 48.9932 2.20825 44.3555 6.21753C41.2874 8.86963 38.9136 12.1948 37.4004 15.8906C35.075 14.7026 32.4785 14.0625 29.8125 14.0625C20.6111 14.0625 13.125 21.5486 13.125 30.75V34.1602C5.62061 35.8433 0 42.5024 0 50.4375C0 54.895 1.6875 59.075 4.75122 62.2075C7.85303 65.3789 12.0249 67.125 16.5 67.125C18.5713 67.125 20.25 65.4463 20.25 63.375C20.25 61.3037 18.5713 59.625 16.5 59.625C11.4536 59.625 7.5 55.5894 7.5 50.4375C7.5 45.3713 11.6924 41.25 16.8464 41.25H16.875C18.9463 41.25 20.625 39.5713 20.625 37.5V30.75C20.625 25.6838 24.7463 21.5625 29.8125 21.5625C32.4441 21.5625 34.9548 22.697 36.7017 24.676C37.6641 25.7659 39.1699 26.2017 40.5659 25.793C41.9619 25.3843 42.9961 24.2058 43.2188 22.7681C44.5671 14.064 52.2393 7.5 61.0642 7.5C71.0229 7.5 79.125 15.6021 79.125 25.5601V30.1729C79.125 31.5601 79.8911 32.8345 81.1172 33.4849C85.6707 35.9019 88.5 40.6018 88.5 45.75C88.5 52.2678 84.0703 57.8306 77.7283 59.2778C75.709 59.7385 74.4456 61.7483 74.9062 63.7676C75.3677 65.7869 77.3782 67.0503 79.3967 66.5896C84.0417 65.5298 88.2561 62.8945 91.2634 59.1694C94.3176 55.3865 96 50.6206 96 45.75C96 38.6001 92.4595 32.0134 86.625 28.0583Z" fill="url(#paint0_linear)"/>
<defs>
<linearGradient id="paint0_linear" x1="0" y1="46.4062" x2="96" y2="46.4062" gradientUnits="userSpaceOnUse">
<stop stop-color="#AAB1E5"/>
<stop offset="0.0208" stop-color="#6E61AB"/>
<stop offset="0.2931" stop-color="#928FCE"/>
<stop offset="0.5538" stop-color="#6E61AB"/>
<stop offset="0.7956" stop-color="#4B3987"/>
<stop offset="1" stop-color="#3F0081"/>
</linearGradient>
</defs>
</svg>
